<svg version="1.1" xmlns="http://www.w3.org/2000/svg" xmlns:xlink="http://www.w3.org/1999/xlink" width="347.17745" height="288.49395" viewBox="0,0,347.17745,288.49395">
  <g transform="translate(-64.11322,-69.3972)">
    <g data-paper-data="{&quot;isPaintingLayer&quot;:true}" fill-rule="nonzero" stroke-linecap="butt" stroke-linejoin="miter" stroke-miterlimit="10" stroke-dasharray="" stroke-dashoffset="0" style="mix-blend-mode: normal">
      <path d="M136.68237,232.55792c0.57564,7.47788 -6.90224,8.05351 -6.90224,8.05351l-8.52956,0.65567c-0.11001,0.00501 -0.22001,0.01003 -0.33001,0.01504c0.05383,0.60746 0.1283,1.21437 0.2281,1.82047c0.53928,3.2751 2.14575,6.28508 3.05694,9.47677c1.49017,5.21975 2.97638,11.05879 6.42918,15.44188c1.23614,1.56919 2.84502,2.80491 4.26754,4.20736c1.77466,1.44495 3.41215,3.07701 5.32398,4.33486c3.70587,2.4382 9.24452,3.62332 13.42228,5.15335c3.74612,1.37195 6.17328,0.63918 9.231,4.89833c2.09126,2.91296 5.09301,6.54901 4.03085,9.974c-2.08918,6.73665 -14.29091,8.21494 -19.25089,9.75635c-9.59974,2.98331 -18.72423,5.22646 -26.34618,12.02488c-1.56477,1.39571 -2.9902,2.94057 -4.45631,4.43959c-0.6255,0.63954 -1.60129,1.1067 -1.81724,1.97481c-1.25892,5.06076 2.18076,10.96408 4.92302,14.92369c0,0 4.15816,6.24178 -2.08361,10.39994c-6.24177,4.15816 -10.39993,-2.08361 -10.39993,-2.08361c-3.92995,-6.05154 -5.59271,-7.73127 -6.98538,-16.55632c-0.58517,-3.70808 -0.71048,-7.63271 0.26067,-11.25889c0.73142,-2.73106 2.8731,-4.89511 4.65376,-7.09121c5.47579,-6.75331 13.0653,-12.58939 21.16456,-15.75837c2.43057,-0.95101 5.06033,-1.29397 7.54547,-2.09155c1.05167,-0.33752 3.74851,-1.35402 6.79705,-2.44164c-2.91077,-0.93691 -6.15774,-1.96011 -8.40282,-3.39871c-2.72611,-1.74683 -5.07869,-4.0174 -7.61803,-6.02609c-2.02866,-2.0512 -4.3254,-3.86814 -6.08598,-6.15358c-4.74885,-6.16454 -7.01573,-13.51791 -9.10116,-20.82161c-1.10751,-3.87877 -2.74114,-7.23271 -3.41397,-11.24513c-0.18376,-1.09584 -0.30022,-2.19735 -0.36834,-3.30211c-1.62741,-0.16127 -4.86019,-0.89611 -6.23283,-4.1389c-2.87825,1.07715 -5.38233,3.0243 -8.22107,4.2151c-4.5015,1.88831 -10.48156,2.36035 -13.85914,6.19267l0.75695,-0.6542c0,0 -3.35211,6.70921 -10.06131,3.3571c-6.7092,-3.35211 -3.35709,-10.06131 -3.35709,-10.06131l2.0511,-3.24443c5.32246,-5.07109 11.86151,-6.60365 18.49568,-9.34894c3.27463,-1.35507 6.18902,-3.52929 9.52773,-4.71775c3.3166,-1.18059 6.82187,-1.81495 10.08494,-3.1363c0,0 0.31121,-0.12457 0.82837,-0.25525c-0.31258,-5.03868 -0.75622,-10.11884 -0.64289,-15.1489c-0.43864,-0.37607 -0.87502,-0.82549 -1.25604,-1.35441c-3.43191,-0.58594 -6.64329,-0.67878 -10.43313,-1.27891c-1.58495,-0.25098 -3.05483,-1.0142 -4.6312,-1.3144c-4.76347,-0.90714 -9.88864,-1.16643 -14.72696,-1.15354c0,0 -7.5,0 -7.5,-7.5c0,-7.5 7.5,-7.5 7.5,-7.5c5.82259,0.01256 11.8929,0.37492 17.6278,1.43671c1.51043,0.27964 2.9108,1.03665 4.42817,1.27583c4.72948,0.74549 8.95792,0.84404 13.54661,1.92024c0.26561,-0.56581 0.51626,-1.14347 0.7418,-1.7392c2.03321,-5.37044 3.81311,-10.8324 5.52242,-16.31628c1.98628,-2.62202 3.85337,-5.43546 5.76485,-8.07518c-1.39159,-1.45453 -0.70828,-3.55549 -1.22234,-5.5436c-0.17476,-0.67587 -0.86084,-1.13632 -1.06285,-1.80455c-1.19088,-3.93927 -1.49298,-8.09414 -2.24564,-12.14007c-1.60458,-8.62537 -2.52389,-17.33997 -3.9086,-26.05019c-0.55334,-3.48071 -2.49631,-6.62578 -3.18384,-10.08249c-0.40041,-2.01313 0.00831,-4.10862 -0.13414,-6.15623c-0.33584,-4.82736 -1.23287,-8.27881 -0.92854,-13.26267c1.63552,-2.15563 2.72059,-4.87215 4.90656,-6.46689c5.18845,-3.78513 15.40081,-1.37422 20.18535,2.10687c2.59223,1.88603 4.35222,4.73886 6.84054,6.76c4.66374,3.78813 9.48505,7.22908 13.9579,11.33201c3.2302,2.96304 6.43815,6.50061 9.92914,8.3809c0.1382,0.07444 -0.19454,-0.40499 -0.05084,-0.46817c0.81422,-0.35801 1.72572,-0.43179 2.58858,-0.64765c2.5884,-0.64754 5.17677,-1.29517 7.76518,-1.94268c5.17231,-1.29399 10.52087,-2.38855 15.78632,-2.75818c1.74821,-0.12273 3.13049,-1.60009 4.78427,-2.18004c2.9399,-1.03097 6.22107,-0.54847 9.33515,-0.4565c1.62544,0.04801 3.14272,-0.84749 4.73869,-1.1593c2.15906,-0.42183 4.36756,-0.53374 6.55611,-0.7568c5.496,-0.56016 10.02417,-2.36241 15.63813,-0.21765c3.25504,1.24356 5.87107,3.49431 8.50999,5.71203c0.15723,-0.51541 0.3203,-1.02902 0.48663,-1.54123c0.99031,-3.04978 1.66112,-6.24762 3.14031,-9.0926c1.28764,-2.47656 3.41811,-4.41497 5.05735,-6.67424c2.94625,-4.06065 6.3719,-9.13509 10.8011,-11.8557c0.90549,-0.5562 2.10822,-0.42127 3.06031,-0.89327c6.03583,-2.99224 8.69608,-8.25796 16.93397,-5.11689c1.90294,0.72558 2.84744,2.91264 4.25358,4.38589c4.33066,4.53732 5.61553,10.19582 6.82671,16.219c2.03307,8.23435 3.3746,16.6306 5.70751,24.8036c0.52573,1.84182 0.32341,4.97798 1.44924,6.51417l0.46222,2.71632c2.22913,-0.23214 4.53893,-0.16296 8.14175,0.45978c7.71567,1.33363 11.51691,9.99003 15.7253,15.49752c1.44025,1.88484 3.46995,3.24554 5.04266,5.02135c6.24334,7.04959 10.46014,15.28251 14.63054,23.57685l0.82681,1.13675c0,0 1.7526,2.6308 1.2742,5.61429c1.18784,1.12654 1.7816,2.31488 1.7816,2.31488c1.62317,3.25973 3.3914,6.45414 5.33993,9.53046c0.98417,1.5538 2.56142,2.66038 3.6191,4.16511c4.3507,6.18964 7.42373,13.53148 12.39921,19.30909c0.18827,-0.05353 0.37635,-0.10743 0.56421,-0.16175l0.11401,-0.0012c0.71064,-2.08406 1.33496,-4.21818 2.64737,-5.95334c6.32388,-8.36093 15.12281,-9.76623 24.28096,-13.0998l3.85885,-0.45214c0,0 7.5,0 7.5,7.5c0,7.17115 -6.85672,7.48558 -7.45801,7.49937c-1.99039,0.73739 -3.9742,1.49359 -5.98502,2.17275c-3.90864,1.32013 -7.4824,1.27548 -9.91958,4.99784c-0.26925,0.41123 -0.47992,0.85153 -0.65668,1.30868c0.42063,0.92312 0.67887,2.05656 0.67887,3.44823c0,6.24317 -5.19697,7.28938 -6.93875,7.4647c0.17377,0.55689 0.32112,1.12006 0.41609,1.69568c0.24596,1.49083 -0.27825,3.0478 0,4.53293c0.37709,2.01262 1.62004,3.80584 1.94126,5.82813c0.25391,1.59856 0.31229,3.17515 0.20415,4.72329c2.64108,-0.38092 4.9833,0.86915 4.9833,0.86915c2.90125,1.57873 5.59922,3.60861 8.70376,4.73621c3.21501,1.16771 6.69966,1.38341 10.04949,2.07512l5.17316,3.27965c0,0 6.23902,4.16229 2.07673,10.40131c-4.16229,6.23902 -10.40131,2.07673 -10.40131,2.07673l-2.59205,-1.90082c-3.12111,-0.60341 -6.38236,-0.70607 -9.36335,-1.81024c-0.34692,-0.1285 -0.69027,-0.26499 -1.03056,-0.40836c-1.29253,0.25682 -2.2858,0.17399 -2.2858,0.17399l-8.34739,-0.69611c-1.91298,-0.15987 -3.79152,-0.32705 -5.64644,-0.50184c-0.75561,0.87309 -1.53253,1.71443 -2.31869,2.52132l-3.5486,4.76638c0,0 -0.48608,0.64858 -1.35186,1.35952c-0.1116,0.15423 -0.18065,0.23715 -0.18065,0.23715c-0.71494,0.71033 -1.74908,1.20412 -2.14481,2.13099c-0.69357,1.62451 -0.06375,3.70084 -0.98776,5.20626c-1.22791,2.00055 -3.36963,3.27337 -5.15344,4.79915c-10.159,8.68948 -24.1412,10.92584 -36.3267,15.36691l-4.50601,0.45214c0,0 -1.79548,0 -3.62945,-0.8785c-3.20015,1.93088 -6.35583,4.05452 -9.67608,5.48735c-2.74248,1.18349 -6.76937,3.20624 -9.61039,4.08886c-0.03229,0.01003 -6.90087,0.81252 -7.68331,1.33636c-1.71654,1.1492 -2.89435,2.98389 -4.58997,4.16375c-2.9404,2.046 -6.63317,3.87829 -9.84586,5.35046c-0.54579,0.2501 0.27495,1.08366 0.55162,1.7038c0.88147,-0.23254 1.95343,0.61135 2.92289,0.74733c1.5104,0.21186 3.02261,0.41199 4.52949,0.64754c3.65089,0.57067 4.19795,0.39709 7.64198,-0.03207c0.26398,-0.03289 3.36265,0.13178 4.15157,-0.24272c3.04248,-1.44423 5.35212,-4.47723 8.62862,-5.25632c2.37833,-0.56552 4.94865,-0.53548 7.33393,0c1.50802,0.33855 2.53098,1.78776 3.89198,2.52018c4.83756,2.6033 10.30668,1.83355 14.72006,5.31341c2.56694,2.02398 3.7313,4.82978 5.13729,7.58513c0.68007,1.70815 1.92926,3.28926 2.04022,5.12446c0.32761,5.41814 -3.15738,9.23612 -5.53744,13.61137l-0.38707,2.27513c0,0 -1.46977,7.35457 -8.82434,5.8848c-7.35458,-1.46977 -5.8848,-8.82434 -5.8848,-8.82434l0.90704,-4.20046c0.41229,-0.8616 2.72352,-5.76832 3.30192,-6.6892c0.2048,-0.32607 0.38882,-0.71596 0.6094,-1.05859c-0.42406,-0.59587 -0.95533,-1.1808 -1.00637,-1.81634c-2.96785,0.58544 -6.04294,-1.39156 -8.59103,-2.532c-1.26488,-0.56612 -2.63809,-0.90498 -3.83755,-1.59903c-0.0636,-0.0368 -0.13466,-0.07654 -0.21001,-0.11888c-2.29147,1.4257 -4.61579,2.83999 -7.11352,3.85851c-2.45731,1.00204 -7.25655,1.43928 -10.08455,1.69986c-4.30064,0.39627 -5.03645,-0.0499 -9.18256,-0.67953c-6.97553,-1.0593 -14.18676,-1.4718 -18.32176,-8.25105c-0.86396,-1.41645 -0.97515,-3.17176 -1.46273,-4.75764c-0.26034,-1.9993 -1.05904,-4.00098 -0.78102,-5.99789c1.2046,-8.65234 6.89604,-11.80979 13.84885,-15.19743c3.16107,-1.54018 5.07989,-4.63558 8.04996,-6.28334c3.23019,-1.79207 7.01867,-1.58697 10.43543,-2.549c1.67012,-0.47024 3.01711,-1.73651 4.62572,-2.38673c2.83164,-1.14459 5.7353,-2.15248 8.43024,-3.5897c1.15021,-0.61341 11.72407,-6.5749 12.39278,-6.81817c3.65043,-1.32799 7.52614,-1.92713 11.28922,-2.8907c0,0 3.58856,-0.89778 6.35572,1.08791c4.77065,-1.72325 9.4935,-3.61837 14.22938,-6.05645c0.70355,-0.36219 1.19054,-1.05962 1.87667,-1.45385c0.39639,-0.22775 1.15392,0.0456 1.31738,-0.38133c0.46148,-1.20531 -0.25928,-2.69971 0.30644,-3.85974c1.03853,-2.12952 2.88413,-3.75968 4.3262,-5.63953c0,0 0.38979,-0.46807 1.08059,-1.02634l0.16035,-0.21277c-3.5251,-0.44189 -7.09346,-0.9164 -10.78427,-1.42584c0,0 -7.42956,-1.0255 -6.40406,-8.45506c1.0255,-7.42956 8.45506,-6.40406 8.45506,-6.40406c6.76217,0.93338 13.02597,1.74059 19.38685,2.44353c0.72089,-1.61714 1.05984,-3.26773 0.70154,-4.82194c-0.45998,-1.99531 -1.56417,-3.81551 -1.94126,-5.82812c-0.37789,-2.01691 -0.23239,-4.15123 -0.68123,-6.13977c-2.32788,0.68501 -4.60452,1.48152 -6.72314,2.58066c0,0 -6.70726,3.356 -10.06326,-3.35126c-3.356,-6.70726 3.35125,-10.06325 3.35125,-10.06325c1.50396,-0.7357 3.0471,-1.37723 4.61658,-1.9538c-3.1495,-4.78838 -5.82543,-9.89365 -9.11867,-14.63363c-1.22088,-1.75723 -2.98112,-3.10577 -4.14611,-4.90053c-3.64252,-5.61158 -3.78443,-6.1566 -6.3077,-11.19171c0,0 -1.1289,-2.2594 -0.76531,-4.81099c-0.87677,-0.78732 -1.3557,-1.50623 -1.3557,-1.50623l-1.7615,-2.74851c-3.57639,-7.19389 -7.11885,-14.36929 -12.54762,-20.45745c-0.37468,-0.42019 -4.79298,-4.68122 -5.31077,-5.33951c-2.24523,-2.85444 -4.03994,-6.07391 -6.33696,-8.9068c-0.40742,-0.50247 -0.58656,-1.5089 -1.23336,-1.49833c-2.61164,0.04268 -5.25079,0.15347 -7.8044,0.70262c0,0 -7.35413,1.47197 -8.8261,-5.88216c-0.15187,-0.75876 -0.20978,-1.4549 -0.19152,-2.09328c-2.39013,-2.07521 -2.53359,-5.42178 -2.5422,-5.81602c-0.61591,-1.81217 -1.02235,-3.70426 -1.23858,-5.5981c-0.21704,-1.90096 -1.24556,-3.6212 -1.74653,-5.46776c-1.93216,-7.12197 -2.79372,-14.52179 -4.59807,-21.64895c-0.48829,-2.45916 -0.71139,-6.11835 -2.04744,-8.31737c-0.53121,0.2366 -1.0798,0.44425 -1.57329,0.74808c-1.14943,0.70766 -2.10317,1.72716 -3.30827,2.33522c-0.64112,0.32349 -1.46347,0.10322 -2.1165,0.40193c-1.92843,0.88211 -4.90698,6.06672 -6.02344,7.57117c-1.26938,1.7105 -3.00693,3.0985 -4.00188,4.98192c-3.55482,6.72917 -1.77149,16.56354 -10.21326,20.22802c-2.19949,0.95477 -4.81389,0.73512 -7.18379,0.37053c-1.74448,-0.26838 -3.20616,-1.47703 -4.80923,-2.21554c-0.64424,-0.47576 -5.49094,-4.03432 -6.14782,-4.59985c-0.73247,-0.63061 -1.30254,-1.55651 -2.21736,-1.86843c-2.81026,-0.95819 -6.21304,0.75442 -8.95162,1.07747c-2.79929,0.33021 -5.34182,0.56654 -8.15223,1.14864c-2.73521,0.56652 -5.59678,0.43206 -8.37799,0.17301c-1.57955,-0.14713 -2.76512,1.5862 -4.25398,2.13381c-1.37777,0.50674 -2.82431,0.83356 -4.27509,1.05774c-4.68139,0.72339 -9.33089,1.2592 -13.97996,2.42229c-4.55006,1.13824 -10.92765,3.84853 -15.58093,3.41727c-5.49611,-0.50937 -9.28929,-4.32895 -13.15656,-7.61914c-4.85635,-4.13166 -9.42793,-8.74268 -14.49812,-12.6387c-3.72416,-2.86171 -6.77548,-5.77318 -10.20997,-8.95972c-0.17155,-0.15917 -0.57975,-0.25857 -1.08392,-0.33606c0.37766,2.95607 -0.06499,6.01106 0.52349,8.93519c0.27114,1.34725 1.32749,2.42776 1.73316,3.74077c1.26118,4.08202 1.44225,8.42225 2.18433,12.62972c1.18278,6.70622 1.97212,13.38143 3.22621,20.02391c0.83482,4.42179 0.32035,5.67314 1.63696,9.87694c0.36908,1.17842 1.23756,2.1751 1.52546,3.37593c0.1158,0.483 -0.57628,0.99156 -0.37004,1.44341c0.26331,0.57687 1.31451,0.52501 1.53916,1.118c0.85905,2.26751 1.66715,4.67878 1.57492,7.10181c-0.19308,5.07244 -5.42611,10.77557 -8.55505,14.27652c-1.44502,6.02239 -3.54203,11.95735 -6.17723,17.58097c4.09246,1.20429 8.24428,2.14669 12.58881,2.60968l3.82094,1.39412c0,0 6.7074,3.35572 3.35168,10.06312c-3.35572,6.70739 -10.06312,3.35168 -10.06312,3.35168l1.23263,0.09919c-4.69688,-0.54006 -9.21172,-1.50585 -13.66101,-2.74141c-0.04125,2.86726 -0.08755,5.73444 0.02997,8.59849c0.09574,2.33333 0.44272,4.65503 0.58695,6.98461l7.47348,-0.57613c0,0 7.47788,-0.57564 8.05351,6.90224z" fill="#000000" stroke="none" stroke-width="0.5" />
      <path d="M293.36645,262.6855c-2.60865,13.28718 -22.20708,20.62601 -43.7743,16.39175c-21.56723,-4.23427 -36.93618,-18.43821 -34.32753,-31.72539c2.60865,-13.28718 80.71049,2.04646 78.10183,15.33364z" fill="#ff1700" stroke="#000000" stroke-width="10" />
      <path d="M170.47517,194.20365c0,3.75 -3.75,3.75 -3.75,3.75h-2.41391c-6.26558,-0.18718 -11.06977,4.02931 -17.00006,5.87283c-2.34537,0.72909 -4.90392,0.54709 -7.26727,1.21562c-1.75477,0.49638 -3.32434,1.50044 -4.9865,2.25065c0,0 -3.42639,1.52392 -4.95032,-1.90247c-1.52392,-3.42639 1.90247,-4.95032 1.90247,-4.95032c1.95873,-0.86022 3.82089,-1.98713 5.8762,-2.58065c2.34277,-0.67653 4.88634,-0.48099 7.21639,-1.20013c4.54576,-1.403 9.35767,-5.2175 14.12252,-6.10509c1.66717,-0.31056 3.39105,-0.06697 5.08657,-0.10045h2.41391c0,0 3.75,0 3.75,3.75z" fill="#000001" stroke="none" stroke-width="0.5" />
      <path d="M304.87883,173.64434c3.63819,-0.90889 4.54708,2.7293 4.54708,2.7293l0.57122,2.29508c1.40128,4.90856 3.20393,9.7696 3.51792,14.90252c0.19677,3.2166 1.60364,6.67247 0.3948,9.65977c-0.84783,2.09516 -3.68402,2.68017 -5.7548,3.58591c-2.74358,1.20001 -7.44579,1.39356 -10.44627,1.97768c-6.68385,0.00852 -14.3865,-0.89382 -20.35226,-4.1094c-2.68725,-1.44845 -4.98568,-3.82419 -7.21847,-5.84908c-1.02589,-0.93037 -2.48723,-1.48653 -3.16076,-2.69665c-0.44962,-0.80784 -1.49109,-7.20933 -1.70808,-8.62122c-0.07735,-0.5033 -0.15379,-1.01039 -0.22883,-1.52085c-9.0252,3.93996 -17.59464,8.71124 -26.29435,13.32031c0,0 -1.80445,0.95599 -3.45567,0.12549c-0.38035,0.88833 -0.81461,1.73922 -1.46143,2.44245c-1.89462,2.05981 -4.4602,3.3826 -6.72898,5.0212c-6.21979,4.49218 -13.09275,8.28801 -20.60273,10.25423c-3.57314,0.9355 -8.73417,0.71037 -12.35411,0.7104c-7.53096,0.00007 -15.4678,-0.985 -20.4576,-7.48229c-3.79556,-4.94226 -3.95338,-9.94397 -3.97898,-15.60076c-6.41182,4.12516 -14.98345,5.90044 -21.98982,8.37506c0,0 -3.53593,1.24888 -4.78481,-2.28706c-1.24888,-3.53593 2.28706,-4.78481 2.28706,-4.78481c5.76522,-2.03625 11.49558,-4.12964 17.24787,-6.20053c1.98934,-0.71618 4.0441,-1.63613 5.48775,-3.18088l1.6324,-0.46495c-0.10507,-5.78317 -0.21014,-11.56635 -0.31522,-17.34952c0,0 -0.06812,-3.74938 3.68126,-3.8175c3.74938,-0.06812 3.8175,3.68126 3.8175,3.68126c0.13624,7.49876 0.27248,14.99752 0.40872,22.49629c0.09965,5.48465 -0.8244,9.9939 2.41936,14.51981c3.36402,4.69369 9.49216,4.59583 14.5445,4.59589c2.49649,0.00003 7.93187,0.21617 10.57815,-0.4971c6.64192,-1.79026 12.47819,-5.16591 18.02033,-9.07119c2.29734,-1.61882 5.00285,-3.08007 6.34975,-5.54669c-0.14214,-1.81825 0.25505,-3.76306 -0.42643,-5.45475c-0.80957,-2.00966 -2.602,-3.46524 -3.87357,-5.21945c-2.82453,-3.89661 -5.57295,-7.84783 -8.35942,-11.77174l-0.802,-0.7282c0,0 -2.65079,-2.65251 0.00171,-5.3033c2.65251,-2.65079 5.3033,0.00171 5.3033,0.00171l1.612,1.68736c2.78647,3.92391 5.60646,7.82424 8.35942,11.77174c1.62127,2.32474 3.91054,4.32326 4.81128,7.01056c0.51999,1.55137 0.63219,3.18527 0.6517,4.83793c8.59508,-4.56771 17.09066,-9.21808 26.02049,-13.11044l1.71357,-0.58868c-0.59469,-6.32738 -0.66183,-12.84068 0.60828,-18.83284c0.49104,-2.31662 1.72787,-4.40975 2.59181,-6.61462c0,0 1.39182,-3.48214 4.87397,-2.09032c3.48214,1.39182 2.09032,4.87397 2.09032,4.87397c-3.28207,8.02004 -3.64095,17.76634 -2.19982,26.35966c0.43885,2.61683 0.89309,5.23324 1.20968,7.86765c0.09127,0.75948 -0.26031,1.62249 0.10927,2.29223c0.3072,0.55671 1.16762,0.53357 1.66716,0.92696c0.67075,0.52822 1.1633,1.25491 1.81051,1.81174c5.61612,4.83188 12.80822,6.3339 20.10453,6.3475c1.06513,-0.22071 4.79133,-0.99928 5.72815,-1.16463c1.0418,-0.18388 2.08568,-0.3635 3.13698,-0.4815c0.49277,-0.05531 1.46588,0.45788 1.48712,-0.03753c0.07707,-1.79763 -0.92364,-3.48115 -1.26048,-5.24862c-0.75659,-3.97 -1.6692,-7.83995 -2.73487,-11.73692c0.33861,-0.56353 0.53333,-1.22336 0.53333,-1.92867c0,-1.35711 -0.72091,-2.54585 -1.80067,-3.20416c-0.06957,-1.09296 0.15778,-3.21966 2.82018,-3.88478z" fill="#000001" stroke="none" stroke-width="0.5" />
      <path d="M337.29799,179.09434c0,3.75 -3.75,3.75 -3.75,3.75l-0.74157,-0.02899c-4.70099,0.58796 -8.52422,0.83534 -12.86738,2.74495c0,0 -3.44637,1.47819 -4.92456,-1.96817c-1.47819,-3.44637 1.96817,-4.92456 1.96817,-4.92456c5.05231,-2.12405 9.48413,-2.61774 14.89299,-3.29423l1.67235,-0.02899c0,0 3.75,0 3.75,3.75z" fill="#000001" stroke="none" stroke-width="0.5" />
      <path d="" fill="#000001" stroke="none" stroke-width="0.5" />
      <path d="" fill="#000001" stroke="none" stroke-width="0.5" />
      <path d="" fill="#000001" stroke="none" stroke-width="0.5" />
      <path d="" fill="#000001" stroke="none" stroke-width="0.5" />
      <path d="M291.23552,184.37574c0.54239,-0.13288 1.03845,-0.38375 1.45944,-0.72384c0.05584,0.02332 0.11235,0.04533 0.16951,0.06599c-0.47291,0.33829 -1.02772,0.56941 -1.62895,0.65785z" fill="#000001" stroke="none" stroke-width="0.5" />
      <path d="" fill="#000001" stroke="none" stroke-width="0.5" />
      <path d="M196.91517,189.08678c0,-0.86262 0.29127,-1.65722 0.78081,-2.2908c-0.82822,-0.68786 -1.3556,-1.72544 -1.3556,-2.88619c0,-2.07107 1.67893,-3.75 3.75,-3.75c2.07107,0 3.75,1.67893 3.75,3.75c0,0.86262 -0.29127,1.65722 -0.78081,2.2908c0.82822,0.68786 1.3556,1.72544 1.3556,2.88619c0,2.07107 -1.67893,3.75 -3.75,3.75c-2.07107,0 -3.75,-1.67893 -3.75,-3.75z" fill="#000000" stroke="none" stroke-width="0.5" />
      <path d="M274.51431,174.70622c0,-0.85314 0.2849,-1.63975 0.76475,-2.26986c-0.12321,-0.37145 -0.18991,-0.76867 -0.18991,-1.18147c0,-1.69686 1.12704,-3.13049 2.67338,-3.59316c0.62262,-0.46004 1.39265,-0.732 2.22621,-0.732c2.07107,0 3.75,1.67893 3.75,3.75c0,1.36236 -0.72648,2.55503 -1.81318,3.21176c0.05811,0.2623 0.08875,0.53494 0.08875,0.81472c0,2.07107 -1.67893,3.75 -3.75,3.75c-2.07107,0 -3.75,-1.67893 -3.75,-3.75z" fill="#000000" stroke="none" stroke-width="0.5" />
    </g>
  </g>
</svg>
